<?xml version="1.0" encoding="UTF-8" standalone="no"?>
<!-- Created with Inkscape (http://www.inkscape.org/) -->

<svg
   width="210mm"
   height="297mm"
   viewBox="0 0 300 424.28571"
   version="1.1"
   id="svg1"
   xml:space="preserve"
   inkscape:version="1.4.2 (ebf0e940d0, 2025-05-08)"
   sodipodi:docname="xlade.svg"
   xmlns:inkscape="http://www.inkscape.org/namespaces/inkscape"
   xmlns:sodipodi="http://sodipodi.sourceforge.net/DTD/sodipodi-0.dtd"
   xmlns="http://www.w3.org/2000/svg"
   xmlns:svg="http://www.w3.org/2000/svg"><sodipodi:namedview
     id="namedview1"
     pagecolor="#ffffff"
     bordercolor="#000000"
     borderopacity="0.25"
     inkscape:showpageshadow="2"
     inkscape:pageopacity="0.0"
     inkscape:pagecheckerboard="0"
     inkscape:deskcolor="#d1d1d1"
     inkscape:document-units="mm"
     showgrid="true"
     inkscape:zoom="3.1094546"
     inkscape:cx="296.67582"
     inkscape:cy="590.93965"
     inkscape:window-width="1920"
     inkscape:window-height="1056"
     inkscape:window-x="0"
     inkscape:window-y="0"
     inkscape:window-maximized="1"
     inkscape:current-layer="svg1"><inkscape:grid
       id="grid13"
       units="mm"
       originx="0"
       originy="0"
       spacingx="0.99999998"
       spacingy="1"
       empcolor="#0099e5"
       empopacity="0.30196078"
       color="#0099e5"
       opacity="0.14901961"
       empspacing="5"
       enabled="true"
       visible="true" /></sodipodi:namedview><defs
     id="defs1"><inkscape:path-effect
       effect="bspline"
       id="path-effect19"
       is_visible="true"
       lpeversion="1.3"
       weight="33.333333"
       steps="2"
       helper_size="0"
       apply_no_weight="true"
       apply_with_weight="true"
       only_selected="false"
       uniform="false" /><inkscape:path-effect
       effect="bspline"
       id="path-effect18"
       is_visible="true"
       lpeversion="1.3"
       weight="33.333333"
       steps="2"
       helper_size="0"
       apply_no_weight="true"
       apply_with_weight="true"
       only_selected="false"
       uniform="false" /><inkscape:path-effect
       effect="bspline"
       id="path-effect12"
       is_visible="true"
       lpeversion="1.3"
       weight="33.333333"
       steps="2"
       helper_size="0"
       apply_no_weight="true"
       apply_with_weight="true"
       only_selected="false"
       uniform="false" /><linearGradient
       id="linearGradient42"
       inkscape:swatch="gradient"><stop
         style="stop-color:#005bff;stop-opacity:1;"
         offset="0"
         id="stop42" /><stop
         style="stop-color:#005bff;stop-opacity:0;"
         offset="1"
         id="stop43" /></linearGradient><linearGradient
       id="swatch39"
       inkscape:swatch="solid"><stop
         style="stop-color:#0e0e0e;stop-opacity:1;"
         offset="0"
         id="stop39" /></linearGradient><linearGradient
       id="swatch38"
       inkscape:swatch="solid"><stop
         style="stop-color:#16d100;stop-opacity:1;"
         offset="0"
         id="stop38" /></linearGradient><inkscape:path-effect
       effect="bspline"
       id="path-effect19-7"
       is_visible="true"
       lpeversion="1.3"
       weight="33.333333"
       steps="2"
       helper_size="0"
       apply_no_weight="true"
       apply_with_weight="true"
       only_selected="false"
       uniform="false" /></defs><path
     sodipodi:type="spiral"
     style="opacity:1;mix-blend-mode:normal;fill:none;fill-rule:evenodd;stroke:#02b311;stroke-width:0.377976;fill-opacity:1;stroke-opacity:1"
     id="path1"
     sodipodi:cx="100.89236"
     sodipodi:cy="223.42191"
     sodipodi:expansion="1"
     sodipodi:revolution="5.7017984"
     sodipodi:radius="30.963202"
     sodipodi:argument="-30.481524"
     sodipodi:t0="0"
     d="m 100.89236,223.42191 c 0.48543,0.65692 -0.64602,0.97845 -1.091851,0.80682 -1.208161,-0.46512 -1.16876,-2.09614 -0.5218,-2.99052 1.157261,-1.59983 3.516781,-1.4534 4.889191,-0.23678 2.01407,1.78545 1.74973,4.95787 -0.0483,6.78787 -2.39642,2.4391 -6.406358,2.05123 -8.686532,-0.33328 -2.869366,-3.00065 -2.355453,-7.85842 0.618296,-10.5852 3.601607,-3.30249 9.312516,-2.66125 12.483876,0.90332 3.73734,4.20072 2.96805,10.76786 -1.18834,14.38255 -4.79872,4.1733 -12.224048,3.2755 -16.281223,-1.47337 -4.610019,-5.39597 -3.583423,-13.68082 1.758391,-18.17989 5.992708,-5.04728 15.138032,-3.89168 20.078562,2.04341 5.48493,6.58908 4.20019,16.59556 -2.32844,21.97724 -7.18517,5.92288 -18.053336,4.50888 -23.875904,-2.61346 -6.36107,-7.78107 -4.817736,-19.51132 2.898486,-25.77458 8.376785,-6.79944 20.969448,-5.12671 27.673248,3.18351 7.23796,8.97237 5.43578,22.42771 -3.46853,29.57192 -9.56787,7.6766 -23.886081,5.74492 -31.470594,-3.75356 -8.115341,-10.16326 -6.054141,-25.34453 4.038581,-33.36926 10.758593,-8.55417 26.803063,-6.36342 35.267933,4.3236 8.99306,11.35386 6.67274,28.26166 -4.60863,37.16661 -11.94907,9.43201 -29.720304,6.98209 -39.065275,-4.89365 -9.871018,-12.54426 -7.291487,-31.17901 5.178676,-40.96395 10.369663,-8.13676 25.215439,-8.42719 36.030529,-0.97028"
     transform="translate(35.52975,-3.7797619)"
     inkscape:highlight-color="#83ff94" /><g
     inkscape:label="Layer 1"
     inkscape:groupmode="layer"
     id="layer1" /><path
     style="fill:#0000ff;fill-opacity:1;stroke-width:7.627;stroke-dasharray:none;paint-order:fill markers stroke"
     d="m 113.32066,190.86849 c 22.37174,43.38181 37.95782,49.58661 45.60008,51.18341"
     id="path13"
     inkscape:highlight-color="#aaaaaa"
     sodipodi:nodetypes="cc" /><path
     style="fill:#0000ff;fill-opacity:1;stroke-width:1.59633"
     d="m 137.18163,217.92652 c -79.1485,81.17708 76.90129,-88.43644 0,0 z"
     id="path14"
     sodipodi:nodetypes="cc" /><path
     style="fill:#ff0000;fill-opacity:1;stroke-width:0.264583"
     d="m 131.43997,193.87534 c 2.35997,12.49801 -0.29882,16.09318 -0.36101,16.19891 v -0.60166"
     id="path15"
     sodipodi:nodetypes="ccc" /><path
     style="fill:#ff0000;fill-opacity:1;stroke-width:0.264583"
     d="m 132.04164,209.59292 c 4.45271,-0.49226 8.20681,0.0897 8.54379,0.12033 v 0 c -5.48132,-2.31623 -8.57622,-0.0293 -8.54379,-0.12033 z"
     id="path16"
     sodipodi:nodetypes="ccsc" /><a
     id="a21"
     transform="translate(89.202342,111.88087)"><path
       style="fill:#ff0000;fill-opacity:1;stroke-width:0.264583"
       d="m 25.270426,111.06954 5.896432,-13.838569 v 0"
       id="path17" /><path
       style="fill:#ff0000;fill-opacity:1;stroke-width:0.264583"
       d="m 25.029755,112.39323 c 1.099442,-8.70896 5.439956,-16.914585 5.535427,-17.087626"
       id="path19"
       sodipodi:nodetypes="cc" /></a><path
     style="fill:#ff0000;fill-opacity:1;stroke-width:0.264583"
     d="m 119.58696,207.11316 c 1.97316,4.68794 3.4419,11.17625 3.48972,17.14778 l 0.24067,-0.15043 -0.24067,0.15042"
     id="path21"
     sodipodi:nodetypes="cccc" /><path
     style="fill:#ff0000;fill-opacity:1;stroke-width:0.264583"
     d="m 116.27775,219.82142 5.17441,-3.00839"
     id="path22"
     sodipodi:nodetypes="cc" /><path
     style="fill:#ff0000;fill-opacity:1;stroke-width:0.305372"
     d="m 122.71108,218.69387 c -3.62513,-1.24722 -7.68398,3.50585 -7.68398,3.50585"
     id="path23"
     sodipodi:nodetypes="cc" /><path
     style="fill:#ff0000;fill-opacity:1;stroke-width:0.264583"
     d="m 147.32419,208.69041 7.82178,-1.47411"
     id="path24"
     sodipodi:nodetypes="cc" /><path
     style="fill:#ff0000;fill-opacity:1;stroke-width:0.264583"
     d="m 153.58161,209.80351 -8.09253,0.99276"
     id="path25"
     sodipodi:nodetypes="cc" /><path
     style="fill:#ff0000;fill-opacity:1;stroke-width:0.264583"
     d="m 149.28819,207.99259 c 4.10241,-2.29722 8.7928,-3.91712 6.91498,-2.72731 -2.20785,0.97186 -3.80855,2.20474 -6.91498,2.72731 z"
     id="path26"
     sodipodi:nodetypes="ccc" /><path
     style="fill:#ff0000;fill-opacity:1;stroke-width:0.264583"
     d="m 151.566,209.20183 c -3.97067,65.90399 0,0 0,0 z"
     id="path27"
     sodipodi:nodetypes="cc" /><path
     style="fill:#ff0000;fill-opacity:1;stroke-width:0.264583"
     d="m 150.37902,214.70274 c 3.16777,0.57064 8.4014,-4.03163 0,0 z"
     id="path28"
     sodipodi:nodetypes="cc" /><path
     style="fill:#ff0000;fill-opacity:1;stroke-width:0.264583"
     d="m 149.19971,207.55947 c 1.0031,5.91867 0.91673,11.55564 0.14437,16.05782 l -0.49078,-2.01206"
     id="path29"
     sodipodi:nodetypes="ccc" /><path
     style="fill:#ff0000;fill-opacity:1;stroke-width:0.264583"
     d="m 153.16044,222.98022 4.93374,-3.54989 v 0"
     id="path30"
     sodipodi:nodetypes="ccc" /><path
     style="fill:#ff0000;fill-opacity:1;stroke-width:0.264583"
     d="m 149.61607,223.17825 c 2.25975,-2.42033 12.8287,-4.33882 7.91334,-2.63778 -0.0804,0.0278 0.8509,-0.42545 0.8509,-0.42545 l -5.34459,2.0457"
     id="path31"
     sodipodi:nodetypes="cscc" /><path
     style="fill:#ff0000;fill-opacity:1;stroke-width:0.264583"
     d="m 131.04679,229.13455 c 0.34036,14.80565 0,0 0,0 z"
     id="path32"
     sodipodi:nodetypes="cc" /><path
     style="fill:#000000;fill-opacity:1;fill-rule:evenodd;stroke-width:7.62701;stroke-dasharray:none;paint-order:fill markers stroke"
     d="M 32.844721,106.7028 135.97374,85.940849"
     id="path46"
     sodipodi:nodetypes="cc" /><a
     id="a301" /><path
     style="fill:#ff0000;fill-opacity:1;fill-rule:evenodd;stroke:none;stroke-width:2.85714;stroke-dasharray:none;stroke-opacity:1;paint-order:fill markers stroke"
     d="m 131.54042,243.57485 c 2.45336,-9.13377 0.22787,-15.62754 0.24311,-15.68087"
     id="path7"
     sodipodi:nodetypes="cc" /><path
     style="fill:#000000;fill-opacity:1;fill-rule:evenodd;stroke:none;stroke-width:2.85714;stroke-dasharray:none;stroke-opacity:1;paint-order:fill markers stroke"
     d="m 125.32534,255.99919 c -0.12156,16.65332 0,0 0,0 z"
     id="path11" /><path
     style="fill:#ff0000;fill-opacity:1;fill-rule:evenodd;stroke:none;stroke-width:2.85714;stroke-dasharray:none;stroke-opacity:1;paint-order:fill markers stroke"
     d="m 108.42891,248.94888 c 0.56039,1.532 1.12079,3.06401 1.5291,5.59717 0.40832,2.53315 0.66455,6.06749 0.92079,9.60181"
     id="path18"
     inkscape:path-effect="#path-effect19"
     inkscape:original-d="m 108.42891,248.94888 c 0.56039,1.532 1.12079,3.06401 1.68118,4.59601 0.25623,3.53431 0.51247,7.06865 0.76871,10.60297"
     sodipodi:nodetypes="ccc"
     transform="matrix(2.3829932,0,0,0.59433964,-125.95649,80.080876)" /><path
     style="fill:#ff0000;fill-opacity:1;fill-rule:evenodd;stroke:none;stroke-width:2.85714;stroke-dasharray:none;stroke-opacity:1;paint-order:fill markers stroke"
     d="m 109.01504,251.64245 c -0.19609,1.86127 -0.39219,3.72258 -0.7934,5.57163 -0.4012,1.84905 -1.00752,3.68587 -1.61383,5.52266"
     id="path18-3"
     inkscape:path-effect="#path-effect19-7"
     inkscape:original-d="m 109.01504,251.64245 c -0.1961,1.86127 -0.39219,3.72258 -0.58829,5.58388 -0.60631,1.8368 -1.21263,3.67362 -1.81894,5.51041"
     sodipodi:nodetypes="ccc"
     transform="matrix(2.3829932,0,0,0.59433964,-121.90935,87.148874)" /></svg>
