<?xml version="1.0" encoding="UTF-8" standalone="no"?>
<!-- Created with Inkscape (http://www.inkscape.org/) -->

<svg
   width="91.021797mm"
   height="124.22187mm"
   viewBox="0 0 130.03114 177.45981"
   version="1.1"
   id="svg1"
   xml:space="preserve"
   inkscape:version="1.4.3 (0d15f75042, 2025-12-25)"
   sodipodi:docname="xlade-logo.svg"
   inkscape:export-filename="xlade-logo-light.png"
   inkscape:export-xdpi="96"
   inkscape:export-ydpi="96"
   xmlns:inkscape="http://www.inkscape.org/namespaces/inkscape"
   xmlns:sodipodi="http://sodipodi.sourceforge.net/DTD/sodipodi-0.dtd"
   xmlns="http://www.w3.org/2000/svg"
   xmlns:svg="http://www.w3.org/2000/svg"
   xmlns:rdf="http://www.w3.org/1999/02/22-rdf-syntax-ns#"
   xmlns:cc="http://creativecommons.org/ns#"
   xmlns:dc="http://purl.org/dc/elements/1.1/"><title
     id="title1">xLaDe Logo</title><sodipodi:namedview
     id="namedview1"
     pagecolor="#ffffff"
     bordercolor="#000000"
     borderopacity="0.25"
     inkscape:showpageshadow="2"
     inkscape:pageopacity="0.0"
     inkscape:pagecheckerboard="false"
     inkscape:deskcolor="#d1d1d1"
     inkscape:document-units="mm"
     showgrid="true"
     inkscape:zoom="1.8101934"
     inkscape:cx="128.1631"
     inkscape:cy="235.8864"
     inkscape:window-width="1216"
     inkscape:window-height="991"
     inkscape:window-x="26"
     inkscape:window-y="23"
     inkscape:window-maximized="0"
     inkscape:current-layer="svg1"
     labelstyle="default"
     inkscape:export-bgcolor="#ffffffff"><inkscape:grid
       id="grid13"
       units="mm"
       originx="-32.844723"
       originy="-85.940849"
       spacingx="0.99999998"
       spacingy="1"
       empcolor="#0099e5"
       empopacity="0.30196078"
       color="#0099e5"
       opacity="0.14901961"
       empspacing="5"
       enabled="true"
       visible="true"
       dotted="false" /></sodipodi:namedview><defs
     id="defs1"><inkscape:path-effect
       effect="bspline"
       id="path-effect19"
       is_visible="true"
       lpeversion="1.3"
       weight="33.333333"
       steps="2"
       helper_size="0"
       apply_no_weight="true"
       apply_with_weight="true"
       only_selected="false"
       uniform="false" /><inkscape:path-effect
       effect="bspline"
       id="path-effect18"
       is_visible="true"
       lpeversion="1.3"
       weight="33.333333"
       steps="2"
       helper_size="0"
       apply_no_weight="true"
       apply_with_weight="true"
       only_selected="false"
       uniform="false" /><inkscape:path-effect
       effect="bspline"
       id="path-effect12"
       is_visible="true"
       lpeversion="1.3"
       weight="33.333333"
       steps="2"
       helper_size="0"
       apply_no_weight="true"
       apply_with_weight="true"
       only_selected="false"
       uniform="false" /><linearGradient
       id="linearGradient42"
       inkscape:swatch="gradient"><stop
         style="stop-color:#005bff;stop-opacity:1;"
         offset="0"
         id="stop42" /><stop
         style="stop-color:#005bff;stop-opacity:0;"
         offset="1"
         id="stop43" /></linearGradient><linearGradient
       id="swatch39"
       inkscape:swatch="solid"><stop
         style="stop-color:#0e0e0e;stop-opacity:1;"
         offset="0"
         id="stop39" /></linearGradient><linearGradient
       id="swatch38"
       inkscape:swatch="solid"><stop
         style="stop-color:#16d100;stop-opacity:1;"
         offset="0"
         id="stop38" /></linearGradient><inkscape:path-effect
       effect="bspline"
       id="path-effect19-7"
       is_visible="true"
       lpeversion="1.3"
       weight="33.333333"
       steps="2"
       helper_size="0"
       apply_no_weight="true"
       apply_with_weight="true"
       only_selected="false"
       uniform="false" /></defs><path
     sodipodi:type="spiral"
     style="opacity:1;mix-blend-mode:normal;fill:none;fill-opacity:1;fill-rule:evenodd;stroke:#02b311;stroke-width:0.377976;stroke-opacity:1"
     id="path1"
     sodipodi:cx="100.89236"
     sodipodi:cy="223.42191"
     sodipodi:expansion="1"
     sodipodi:revolution="5.7017984"
     sodipodi:radius="30.963202"
     sodipodi:argument="-30.481524"
     sodipodi:t0="0"
     d="m 100.89236,223.42191 c 0.48543,0.65692 -0.64602,0.97845 -1.091851,0.80682 -1.208161,-0.46512 -1.16876,-2.09614 -0.5218,-2.99052 1.157261,-1.59983 3.516781,-1.4534 4.889191,-0.23678 2.01407,1.78545 1.74973,4.95787 -0.0483,6.78787 -2.39642,2.4391 -6.406358,2.05123 -8.686532,-0.33328 -2.869366,-3.00065 -2.355453,-7.85842 0.618296,-10.5852 3.601607,-3.30249 9.312516,-2.66125 12.483876,0.90332 3.73734,4.20072 2.96805,10.76786 -1.18834,14.38255 -4.79872,4.1733 -12.224048,3.2755 -16.281223,-1.47337 -4.610019,-5.39597 -3.583423,-13.68082 1.758391,-18.17989 5.992708,-5.04728 15.138032,-3.89168 20.078562,2.04341 5.48493,6.58908 4.20019,16.59556 -2.32844,21.97724 -7.18517,5.92288 -18.053336,4.50888 -23.875904,-2.61346 -6.36107,-7.78107 -4.817736,-19.51132 2.898486,-25.77458 8.376785,-6.79944 20.969448,-5.12671 27.673248,3.18351 7.23796,8.97237 5.43578,22.42771 -3.46853,29.57192 -9.56787,7.6766 -23.886081,5.74492 -31.470594,-3.75356 -8.115341,-10.16326 -6.054141,-25.34453 4.038581,-33.36926 10.758593,-8.55417 26.803063,-6.36342 35.267933,4.3236 8.99306,11.35386 6.67274,28.26166 -4.60863,37.16661 -11.94907,9.43201 -29.720304,6.98209 -39.065275,-4.89365 -9.871018,-12.54426 -7.291487,-31.17901 5.178676,-40.96395 10.369663,-8.13676 25.215439,-8.42719 36.030529,-0.97028"
     transform="matrix(1.4587832,0,0,1.376684,-81.444451,-216.85227)"
     inkscape:highlight-color="#83ff94" /><g
     inkscape:label="Layer 1"
     inkscape:groupmode="layer"
     id="layer1"
     transform="translate(-32.844721,-85.940849)" /><path
     style="fill:#0000ff;fill-opacity:1;stroke-width:10.8085;stroke-dasharray:none;paint-order:fill markers stroke"
     d="M 32.035438,51.116557 C 64.670967,110.83978 87.407757,119.38188 98.556219,121.58019"
     id="path13"
     inkscape:highlight-color="#aaaaaa"
     sodipodi:nodetypes="cc" /><path
     style="fill:#0000ff;fill-opacity:1;stroke-width:2.26221"
     d="m 66.843436,88.367023 c -115.460404,111.755427 112.182594,-121.74903 0,0 z"
     id="path14"
     sodipodi:nodetypes="cc" /><path
     style="fill:#ff0000;fill-opacity:1;stroke-width:0.374951"
     d="m 58.467577,55.25605 c 3.442691,17.205857 -0.435913,22.15529 -0.526635,22.300836"
     id="path15"
     sodipodi:nodetypes="cc" /><path
     style="fill:#ff0000;fill-opacity:1;stroke-width:0.374951"
     d="m 59.345283,76.894256 c 6.49556,-0.677702 11.971994,0.123482 12.463579,0.165652 v 0 C 63.812774,73.871182 59.297976,77.019556 59.345283,76.894256 Z"
     id="path16"
     sodipodi:nodetypes="ccsc" /><a
     id="a21"
     transform="matrix(1.4587832,0,0,1.376684,-3.147907,-57.624257)"><path
       style="fill:#ff0000;fill-opacity:1;stroke-width:0.264583"
       d="m 25.270426,111.06954 5.896432,-13.838569 v 0"
       id="path17" /><path
       style="fill:#ff0000;fill-opacity:1;stroke-width:0.264583"
       d="m 25.029755,112.39323 c 1.099442,-8.70896 5.439956,-16.914585 5.535427,-17.087626"
       id="path19"
       sodipodi:nodetypes="cc" /></a><path
     style="fill:#ff0000;fill-opacity:1;stroke-width:0.374951"
     d="m 41.176608,73.4804 c 2.878411,6.453828 5.020984,15.386211 5.090743,23.607146 l 0.351085,-0.207099 -0.351085,0.207082"
     id="path21"
     sodipodi:nodetypes="cccc" /><path
     style="fill:#ff0000;fill-opacity:1;stroke-width:0.374951"
     d="m 36.349189,90.975711 7.548342,-4.141614"
     id="path22"
     sodipodi:nodetypes="cc" /><path
     style="fill:#ff0000;fill-opacity:1;stroke-width:0.432753"
     d="M 45.73402,89.423417 C 40.445744,87.706388 34.524763,94.249889 34.524763,94.249889"
     id="path23"
     sodipodi:nodetypes="cc" /><path
     style="fill:#ff0000;fill-opacity:1;stroke-width:0.374951"
     d="m 81.639274,75.651783 11.410342,-2.0294"
     id="path24"
     sodipodi:nodetypes="cc" /><path
     style="fill:#ff0000;fill-opacity:1;stroke-width:0.374951"
     d="M 84.504337,74.691095 C 90.4889,71.528542 97.331194,69.29844 94.59185,70.936443 91.371061,72.27439 89.035974,73.971675 84.504337,74.691095 Z"
     id="path26"
     sodipodi:nodetypes="ccc" /><path
     style="fill:#ff0000;fill-opacity:1;stroke-width:0.374951"
     d="m 86.09563,83.928888 c 4.621117,0.785583 12.255891,-5.550308 0,0 z"
     id="path28"
     sodipodi:nodetypes="cc" /><path
     style="fill:#ff0000;fill-opacity:1;stroke-width:0.374951"
     d="m 84.375269,74.094819 c 1.463303,8.148164 1.33731,15.908516 0.210605,22.106619 L 83.869926,93.43146"
     id="path29"
     sodipodi:nodetypes="ccc" /><path
     style="fill:#ff0000;fill-opacity:1;stroke-width:0.374951"
     d="m 84.982654,95.597007 c 3.296501,-3.332025 18.714396,-5.97319 11.543905,-3.631391"
     id="path31"
     sodipodi:nodetypes="cc" /><a
     id="a301"
     transform="matrix(1.4587832,0,0,1.376684,-133.27468,-211.64875)" /><path
     style="fill:#ff0000;fill-opacity:1;fill-rule:evenodd;stroke:none;stroke-width:4.04896;stroke-dasharray:none;stroke-opacity:1;paint-order:fill markers stroke"
     d="m 58.614113,123.67681 c 3.578926,-12.57437 0.332411,-21.51429 0.354645,-21.58771"
     id="path7"
     sodipodi:nodetypes="cc" /><path
     style="fill:#ff0000;fill-opacity:1;fill-rule:evenodd;stroke:none;stroke-width:2.85714;stroke-dasharray:none;stroke-opacity:1;paint-order:fill markers stroke"
     d="m 108.42891,248.94888 c 0.56039,1.532 1.12079,3.06401 1.5291,5.59717 0.40832,2.53315 0.66455,6.06749 0.92079,9.60181"
     id="path18"
     sodipodi:nodetypes="ccc"
     transform="matrix(3.4762703,0,0,0.81821787,-317.01773,-101.40281)"
     inkscape:original-d="m 108.42891,248.94888 c 0.56039,1.532 1.12079,3.06401 1.68118,4.59601 0.25623,3.53431 0.51247,7.06865 0.76871,10.60297"
     inkscape:path-effect="#path-effect19" /><path
     style="fill:#ff0000;fill-opacity:1;fill-rule:evenodd;stroke:none;stroke-width:2.85714;stroke-dasharray:none;stroke-opacity:1;paint-order:fill markers stroke"
     d="m 109.01504,251.64245 c -0.19609,1.86127 -0.39219,3.72258 -0.7934,5.57163 -0.4012,1.84905 -1.00752,3.68587 -1.61383,5.52266"
     id="path18-3"
     sodipodi:nodetypes="ccc"
     transform="matrix(3.4762703,0,0,0.81821787,-311.11384,-91.672392)"
     inkscape:original-d="m 109.01504,251.64245 c -0.1961,1.86127 -0.39219,3.72258 -0.58829,5.58388 -0.60631,1.8368 -1.21263,3.67362 -1.81894,5.51041"
     inkscape:path-effect="#path-effect19-7" /><metadata
     id="metadata1"><rdf:RDF><cc:Work
         rdf:about=""><dc:title>xLaDe Logo</dc:title><dc:date>29-04-2026</dc:date><dc:creator><cc:Agent><dc:title>Lakshit Singh Bisht</dc:title></cc:Agent></dc:creator><dc:publisher><cc:Agent><dc:title>xLaDe Project</dc:title></cc:Agent></dc:publisher><dc:source>https://github.com/LakshitSinghBishtTM/xLaDe</dc:source><dc:language>None</dc:language><dc:subject><rdf:Bag><rdf:li>xlade</rdf:li><rdf:li>lean4</rdf:li><rdf:li>logo</rdf:li></rdf:Bag></dc:subject><dc:description>Official Logo of xLaDe</dc:description><dc:contributor><cc:Agent><dc:title>Lakshit Singh Bisht, Manpreet Saaho</dc:title></cc:Agent></dc:contributor><dc:relation>xLaDe</dc:relation><dc:coverage>Global</dc:coverage><dc:identifier>xlade-logo-v1.0</dc:identifier><dc:rights><cc:Agent><dc:title>Copyright (c) 2026 Lakshit Singh Bisht. Licensed under CC BY-SA 4.0.</dc:title></cc:Agent></dc:rights><cc:license
           rdf:resource="http://creativecommons.org/licenses/by-nc-sa/4.0/" /></cc:Work><cc:License
         rdf:about="http://creativecommons.org/licenses/by-nc-sa/4.0/"><cc:permits
           rdf:resource="http://creativecommons.org/ns#Reproduction" /><cc:permits
           rdf:resource="http://creativecommons.org/ns#Distribution" /><cc:requires
           rdf:resource="http://creativecommons.org/ns#Notice" /><cc:requires
           rdf:resource="http://creativecommons.org/ns#Attribution" /><cc:prohibits
           rdf:resource="http://creativecommons.org/ns#CommercialUse" /><cc:permits
           rdf:resource="http://creativecommons.org/ns#DerivativeWorks" /><cc:requires
           rdf:resource="http://creativecommons.org/ns#ShareAlike" /></cc:License></rdf:RDF></metadata></svg>
